<svg viewBox="-8.58 0 174.16 174.16" xmlns="http://www.w3.org/2000/svg">
  <rect x="-8.58" y="0" width="174.16" height="174.16" fill="#FFFFFF"/>
  <!-- Escudo rojo principal -->
  <g transform="translate(-0.001,-0.001)">
    <path fill="#e20613" d="M30.96082 116.93114c-0.56-0.95999-1.08-1.93-1.6-2.93-0.32-0.61-0.61-1.24-0.91-1.85l-14.41 54.56001c-0.7 2.28999-2.78 3.97-5.25 3.97-3.04 0-5.49-2.52-5.49-5.63l0.16-80.61c0-26.29001 12.47-52.08001 35.48-67.66001 36.44-24.65 85.48-14.4 109.56 22.94 1.17 1.82 2.26 3.67 3.29 5.54l0.50999 0.83001-18.05 9.65c0.3 0.55 0.61 1.11 0.86999 1.66999 0.24001 0.46 0.46001 0.92 0.68 1.38001l20.71-11.11c-1.63786-3.36871-3.46753-6.64075-5.47998-9.80001-25.07-38.89-76.14-49.59-114.09-23.88-24.06 16.28-37.06 43.3-36.94 70.82l0 80.24c0 5.03 3.97 9.10001 8.89 9.10001 4.13 0 7.61-2.89 8.61-6.79l13.46-50.44001z"/>
  </g>
  <!-- Detalle azul interior (Tc4tD) -->
  <g transform="translate(32.1,47.72)">
    <path fill="#1a2b4a" d="M33.85999 51.38946l53.7-28.66c-0.41-0.93-0.84-1.86-1.34-2.79-9.67-18.17-32.52-25.2-51.05999-15.72-18.5 9.49-25.68 31.92-16.01001 50.08 0.61 1.13 1.26 2.22 1.96 3.28l-7.02 10.62 12.8 0 4.16-6.11 60-0.04-11.20999 16.54-72.84 0.05001-7 10.3 64.89999 30.78999 46.35-68.31-77.38-0.03-0.01001 0z m-7.54001-8.01c-2.89-11.62 2.54-24.12 13.82-29.9 11.08-5.67 24.31-3.11 32.43 5.43l-46.25 24.47z m34.86 62.96l-36.34999-17.24 47.89 0-11.54001 17.24z"/>
  </g>
  <!-- Detalle azul exterior (V0wsL) -->
  <g transform="translate(26.08,27.24)">
    <path fill="#1a2b4a" d="M14.65547 76.98927c-10.4-22.71-1.07-49.72 21.70999-61.38 23.64-12.11 52.8-3.13 65.15001 20.07 4.21842 7.87705 6.07268 16.8046 5.34 25.70999l10.42-0.02c0.72-10.24-1.35001-20.65-6.55001-30.41999-15-28.19-50.45999-39.12-79.19-24.40001-28.73 14.73-39.86 49.51-24.86 77.71 0.51 0.93 1.02 1.86 1.56 2.74l6.41-10.02 0.01001 0.01001z"/>
  </g>
</svg>
